<mxfile host="65bd71144e">
    <diagram id="rLFQORjLkLXBGLeW2nUi" name="Página-1">
        <mxGraphModel dx="953" dy="782" grid="1" gridSize="10" guides="1" tooltips="1" connect="1" arrows="1" fold="1" page="1" pageScale="1" pageWidth="827" pageHeight="1169" math="0" shadow="0">
            <root>
                <mxCell id="0"/>
                <mxCell id="1" parent="0"/>
                <mxCell id="2" value="Banco Livraria Kron" style="text;html=1;strokeColor=none;fillColor=none;align=center;verticalAlign=middle;whiteSpace=wrap;rounded=0;fontFamily=Cascadia Mono;fontSource=https%3A%2F%2Ffonts.googleapis.com%2Fcss%3Ffamily%3DCascadia%2BMono;fontSize=19;" parent="1" vertex="1">
                    <mxGeometry x="339" y="30" width="150" height="20" as="geometry"/>
                </mxCell>
                <mxCell id="3" value="Clientes" style="rounded=1;whiteSpace=wrap;html=1;fontFamily=Cascadia Mono;fontSource=https%3A%2F%2Ffonts.googleapis.com%2Fcss%3Ffamily%3DCascadia%2BMono;fontSize=19;" parent="1" vertex="1">
                    <mxGeometry x="80" y="120" width="160" height="80" as="geometry"/>
                </mxCell>
                <mxCell id="4" value="Livros" style="rounded=1;whiteSpace=wrap;html=1;fontFamily=Cascadia Mono;fontSource=https%3A%2F%2Ffonts.googleapis.com%2Fcss%3Ffamily%3DCascadia%2BMono;fontSize=19;" parent="1" vertex="1">
                    <mxGeometry x="280" y="120" width="160" height="80" as="geometry"/>
                </mxCell>
                <mxCell id="6" value="Registro de Livros Alugados" style="rounded=1;whiteSpace=wrap;html=1;fontFamily=Cascadia Mono;fontSource=https%3A%2F%2Ffonts.googleapis.com%2Fcss%3Ffamily%3DCascadia%2BMono;fontSize=19;" parent="1" vertex="1">
                    <mxGeometry x="520" y="360" width="160" height="80" as="geometry"/>
                </mxCell>
                <mxCell id="7" value="Alugar" style="rhombus;whiteSpace=wrap;html=1;fontFamily=Cascadia Mono;fontSource=https%3A%2F%2Ffonts.googleapis.com%2Fcss%3Ffamily%3DCascadia%2BMono;fontSize=19;" parent="1" vertex="1">
                    <mxGeometry x="200" y="270" width="110" height="110" as="geometry"/>
                </mxCell>
                <mxCell id="8" value="" style="endArrow=classic;html=1;fontFamily=Cascadia Mono;fontSource=https%3A%2F%2Ffonts.googleapis.com%2Fcss%3Ffamily%3DCascadia%2BMono;fontSize=19;exitX=0.5;exitY=1;exitDx=0;exitDy=0;entryX=0;entryY=0;entryDx=0;entryDy=0;" parent="1" source="3" target="7" edge="1">
                    <mxGeometry width="50" height="50" relative="1" as="geometry">
                        <mxPoint x="370" y="280" as="sourcePoint"/>
                        <mxPoint x="420" y="230" as="targetPoint"/>
                    </mxGeometry>
                </mxCell>
                <mxCell id="9" value="" style="endArrow=classic;html=1;fontFamily=Cascadia Mono;fontSource=https%3A%2F%2Ffonts.googleapis.com%2Fcss%3Ffamily%3DCascadia%2BMono;fontSize=19;exitX=0.5;exitY=1;exitDx=0;exitDy=0;entryX=1;entryY=0;entryDx=0;entryDy=0;" parent="1" source="4" target="7" edge="1">
                    <mxGeometry width="50" height="50" relative="1" as="geometry">
                        <mxPoint x="170" y="210" as="sourcePoint"/>
                        <mxPoint x="250" y="330" as="targetPoint"/>
                    </mxGeometry>
                </mxCell>
                <mxCell id="12" value="" style="endArrow=classic;html=1;fontFamily=Cascadia Mono;fontSource=https%3A%2F%2Ffonts.googleapis.com%2Fcss%3Ffamily%3DCascadia%2BMono;fontSize=19;exitX=1;exitY=1;exitDx=0;exitDy=0;entryX=0;entryY=0.5;entryDx=0;entryDy=0;" parent="1" source="7" target="6" edge="1">
                    <mxGeometry width="50" height="50" relative="1" as="geometry">
                        <mxPoint x="370" y="280" as="sourcePoint"/>
                        <mxPoint x="420" y="230" as="targetPoint"/>
                        <Array as="points">
                            <mxPoint x="350" y="400"/>
                        </Array>
                    </mxGeometry>
                </mxCell>
                <mxCell id="13" value="Registro de Devoluções" style="rounded=1;whiteSpace=wrap;html=1;fontFamily=Cascadia Mono;fontSource=https%3A%2F%2Ffonts.googleapis.com%2Fcss%3Ffamily%3DCascadia%2BMono;fontSize=19;" parent="1" vertex="1">
                    <mxGeometry x="280" y="600" width="160" height="80" as="geometry"/>
                </mxCell>
                <mxCell id="14" value="" style="endArrow=classic;html=1;fontFamily=Cascadia Mono;fontSource=https%3A%2F%2Ffonts.googleapis.com%2Fcss%3Ffamily%3DCascadia%2BMono;fontSize=19;exitX=0.5;exitY=1;exitDx=0;exitDy=0;entryX=0.5;entryY=0;entryDx=0;entryDy=0;" parent="1" source="6" target="15" edge="1">
                    <mxGeometry width="50" height="50" relative="1" as="geometry">
                        <mxPoint x="370" y="420" as="sourcePoint"/>
                        <mxPoint x="420" y="370" as="targetPoint"/>
                    </mxGeometry>
                </mxCell>
                <mxCell id="15" value="Devolução" style="rhombus;whiteSpace=wrap;html=1;fontFamily=Cascadia Mono;fontSource=https%3A%2F%2Ffonts.googleapis.com%2Fcss%3Ffamily%3DCascadia%2BMono;fontSize=19;" parent="1" vertex="1">
                    <mxGeometry x="527.5" y="490" width="145" height="140" as="geometry"/>
                </mxCell>
                <mxCell id="16" value="" style="endArrow=classic;html=1;fontFamily=Cascadia Mono;fontSource=https%3A%2F%2Ffonts.googleapis.com%2Fcss%3Ffamily%3DCascadia%2BMono;fontSize=19;exitX=0;exitY=1;exitDx=0;exitDy=0;entryX=1;entryY=0.5;entryDx=0;entryDy=0;" parent="1" source="15" target="13" edge="1">
                    <mxGeometry width="50" height="50" relative="1" as="geometry">
                        <mxPoint x="370" y="590" as="sourcePoint"/>
                        <mxPoint x="420" y="540" as="targetPoint"/>
                    </mxGeometry>
                </mxCell>
                <mxCell id="17" value="Registro de Multas" style="rounded=1;whiteSpace=wrap;html=1;fontFamily=Cascadia Mono;fontSource=https%3A%2F%2Ffonts.googleapis.com%2Fcss%3Ffamily%3DCascadia%2BMono;fontSize=19;" parent="1" vertex="1">
                    <mxGeometry x="280" y="440" width="160" height="80" as="geometry"/>
                </mxCell>
                <mxCell id="18" value="" style="endArrow=classic;html=1;fontFamily=Cascadia Mono;fontSource=https%3A%2F%2Ffonts.googleapis.com%2Fcss%3Ffamily%3DCascadia%2BMono;fontSize=19;exitX=0;exitY=0;exitDx=0;exitDy=0;entryX=1;entryY=0.5;entryDx=0;entryDy=0;" parent="1" source="15" target="17" edge="1">
                    <mxGeometry width="50" height="50" relative="1" as="geometry">
                        <mxPoint x="560" y="520" as="sourcePoint"/>
                        <mxPoint x="420" y="480" as="targetPoint"/>
                    </mxGeometry>
                </mxCell>
            </root>
        </mxGraphModel>
    </diagram>
</mxfile>